# Blender 3.4.1
# www.blender.org
mtllib TreeNew22023.mtl
g Cube_Cube
v -0.663826 -0.028689 0.167684
v -0.166518 -0.028689 -0.664119
v 0.663826 0.028689 -0.167684
v 0.166518 0.028689 0.664119
v -0.630557 0.975168 0.115965
v -0.195935 0.967497 -0.610087
v 0.529021 1.019404 -0.176670
v 0.094399 1.027075 0.549382
v -0.612775 3.747469 -0.053606
v -0.284818 3.730714 -0.600214
v 0.261800 3.759913 -0.273146
v -0.066158 3.776669 0.273462
v -0.490978 6.668061 -0.217368
v -0.268350 6.653162 -0.588169
v 0.102740 6.665322 -0.365856
v -0.119888 6.680222 0.004945
v -0.689210 0.469954 0.152508
v -0.191902 0.469954 -0.679296
v 0.638442 0.527332 -0.182860
v 0.141134 0.527332 0.648943
v -0.625293 1.796981 0.065699
v -0.222108 1.782761 -0.606971
v 0.449780 1.832547 -0.205307
v 0.046595 1.846767 0.467363
v -0.620776 2.481776 0.023772
v -0.244180 2.468494 -0.604538
v 0.383399 2.514996 -0.229362
v 0.006803 2.528278 0.398947
v -0.616543 3.123683 -0.015530
v -0.264870 3.111280 -0.602257
v 0.321176 3.154705 -0.251911
v -0.030497 3.167108 0.334816
v -0.585807 4.403029 -0.090294
v -0.281196 4.382643 -0.597643
v 0.226549 4.399281 -0.293463
v -0.078062 4.419667 0.213886
v -0.564418 4.913905 -0.118955
v -0.278298 4.894756 -0.595507
v 0.198624 4.910384 -0.309791
v -0.087496 4.929533 0.166760
v -0.544761 5.383432 -0.145297
v -0.275636 5.365421 -0.593543
v 0.172959 5.380121 -0.324798
v -0.096166 5.398132 0.123448
v -0.526150 5.827975 -0.170237
v -0.273114 5.811040 -0.591683
v 0.148660 5.824861 -0.339006
v -0.104375 5.841795 0.082440
v -0.508279 6.254816 -0.194184
v -0.270694 6.238915 -0.589898
v 0.125328 6.251893 -0.352648
v -0.112257 6.267793 0.043066
vn 0.0508 -0.9982 0.0304
vn -0.0064 0.9990 -0.0440
vn -0.8563 0.0633 -0.5126
vn 0.5029 0.1228 -0.8556
vn 0.8445 0.1804 0.5043
vn -0.5156 0.1210 0.8482
vn -0.8578 -0.0257 -0.5134
vn 0.5120 0.0197 -0.8588
vn 0.8542 0.1010 0.5101
vn -0.5153 0.0556 0.8552
vn -0.8577 -0.0258 -0.5135
vn 0.5120 0.0195 -0.8588
vn 0.8543 0.1011 0.5099
vn -0.5154 0.0558 0.8552
vn -0.8576 -0.0260 -0.5136
vn 0.5122 0.0197 -0.8586
vn 0.8543 0.1015 0.5097
vn -0.5151 0.0556 0.8553
vn -0.8573 0.0066 -0.5148
vn 0.5137 0.0008 -0.8580
vn 0.8567 0.0634 0.5119
vn -0.5147 0.0693 0.8546
vn -0.8572 0.0070 -0.5149
vn 0.5139 0.0007 -0.8579
vn 0.8567 0.0632 0.5119
vn -0.5143 0.0695 0.8548
vn -0.8568 -0.0592 -0.5122
vn 0.5131 -0.0000 -0.8583
vn 0.8568 0.0592 0.5122
vn -0.5131 -0.0000 0.8583
s 0
g Cube_Material
usemtl Material
f 1//1 2//1 3//1 4//1
f 16//2 15//2 14//2 13//2
f 5//3 6//3 18//3 17//3
f 6//4 7//4 19//4 18//4
f 7//5 8//5 20//5 19//5
f 8//6 5//6 17//6 20//6
f 21//7 22//7 6//7 5//7
f 22//8 23//8 7//8 6//8
f 23//9 24//9 8//9 7//9
f 24//10 21//10 5//10 8//10
f 25//11 26//11 22//11 21//11
f 26//12 27//12 23//12 22//12
f 27//13 28//13 24//13 23//13
f 28//14 25//14 21//14 24//14
f 29//11 30//11 26//11 25//11
f 30//12 31//12 27//12 26//12
f 31//13 32//13 28//13 27//13
f 32//14 29//14 25//14 28//14
f 9//15 10//15 30//15 29//15
f 10//16 11//16 31//16 30//16
f 11//17 12//17 32//17 31//17
f 12//18 9//18 29//18 32//18
f 33//19 34//19 10//19 9//19
f 34//20 35//20 11//20 10//20
f 35//21 36//21 12//21 11//21
f 36//22 33//22 9//22 12//22
f 37//23 38//23 34//23 33//23
f 38//24 39//24 35//24 34//24
f 39//25 40//25 36//25 35//25
f 40//26 37//26 33//26 36//26
f 41//23 42//23 38//23 37//23
f 42//24 43//24 39//24 38//24
f 43//25 44//25 40//25 39//25
f 44//26 41//26 37//26 40//26
f 45//23 46//23 42//23 41//23
f 46//24 47//24 43//24 42//24
f 47//25 48//25 44//25 43//25
f 48//26 45//26 41//26 44//26
f 49//23 50//23 46//23 45//23
f 50//24 51//24 47//24 46//24
f 51//25 52//25 48//25 47//25
f 52//26 49//26 45//26 48//26
f 13//23 14//23 50//23 49//23
f 14//24 15//24 51//24 50//24
f 15//25 16//25 52//25 51//25
f 16//26 13//26 49//26 52//26
f 17//27 18//27 2//27 1//27
f 18//28 19//28 3//28 2//28
f 19//29 20//29 4//29 3//29
f 20//30 17//30 1//30 4//30
g Icosphere_Icosphere
v 0.524984 6.335145 0.038431
v -0.312956 6.288595 0.406453
v -0.921647 6.259824 -0.277966
v -0.459878 6.288595 -1.068981
v 0.434182 6.335145 -0.873429
v -0.319929 8.229091 0.055641
v -0.661715 8.204205 -0.294465
v -0.434255 8.204205 -0.728361
v 0.048113 8.229091 -0.646425
v 0.118774 8.244472 -0.161881
v 0.787675 6.348311 0.192255
v -0.377799 6.283566 0.704131
v 0.661380 6.348311 -1.076036
v -1.224417 6.243549 -0.247817
v -0.582151 6.283566 -1.348025
v 0.841220 5.246044 0.078075
v -0.218305 5.184252 0.672405
v -1.110773 5.146063 -0.153244
v -0.602798 5.184252 -1.257851
v 0.603593 5.246044 -1.114875
v 1.108073 5.258755 0.201228
v -0.252673 5.179397 0.964524
v 0.802888 5.258755 -1.330881
v -1.398870 5.130350 -0.095857
v -0.746478 5.179397 -1.514505
v 1.073497 3.937278 0.148910
v -0.025508 3.918705 0.952806
v -1.127562 3.836284 0.157132
v -0.709639 3.803919 -1.265184
v 0.650686 3.866336 -1.222403
v 1.390636 3.955932 0.250735
v -0.024873 3.932011 1.286147
v 0.846057 3.864560 -1.492812
v -1.444313 3.825853 0.261322
v -0.906030 3.784166 -1.534134
v 1.421597 2.469459 0.110113
v 0.251422 2.446989 1.269683
v -1.210272 2.347271 0.516074
v -0.943446 2.308114 -1.159152
v 0.683138 2.383630 -1.410029
v 1.648490 2.482334 0.147048
v 0.286077 2.456172 1.497114
v 0.788713 2.382404 -1.614633
v -1.415750 2.340072 0.619700
v -1.105088 2.294481 -1.322541
v 2.073306 1.003786 0.292349
v 0.417807 0.971997 1.932844
v -1.650117 0.830921 0.866681
v -1.272625 0.775523 -1.432742
v 1.028575 0.882360 -1.787669
vn -0.6700 0.3425 0.6586
vn -0.8500 0.2259 -0.4760
vn 0.3841 0.2899 0.8766
vn -0.0473 0.9986 -0.0248
vn -0.7244 0.2307 0.6497
vn 0.0531 -0.9986 -0.0053
vn 0.0496 0.2276 -0.9725
vn 0.4032 0.3915 0.8271
vn -0.8453 0.3372 -0.4144
vn 0.8974 0.4166 -0.1454
vn 0.1224 0.3829 -0.9157
vn 0.0524 -0.9986 -0.0104
vn -0.9587 0.1895 -0.2120
vn -0.6034 0.3241 0.7286
vn 0.4980 0.3857 0.7766
vn -0.9218 0.1989 -0.3328
vn 0.9217 0.2928 -0.2546
vn 0.0459 -0.9982 0.0398
vn 0.0454 -0.9983 0.0379
vn 0.0469 -0.9982 0.0369
vn 0.0447 -0.9982 0.0398
vn 0.8440 0.3124 -0.4360
vn 0.8870 0.2658 -0.3776
vn -0.0826 0.1550 -0.9845
vn -0.5070 0.2741 0.8172
vn 0.6203 0.3215 0.7155
vn 0.0514 -0.9982 0.0325
vn 0.0510 -0.9982 0.0317
vn 0.0515 -0.9982 0.0316
vn -0.1585 0.2064 -0.9655
vn -0.4510 0.3232 0.8320
vn 0.6499 0.3714 0.6631
vn -0.9579 0.2376 -0.1609
vn 0.1787 0.2821 -0.9426
vn 0.9407 0.3215 -0.1085
vt 0.411055 0.157461
vt 0.861673 0.157461
vt 0.789418 0.157461
vt 0.636364 0.157461
vt 0.483311 0.157461
vt 0.250321 0.314921
vt 0.240483 0.314921
vt 0.486791 0.314921
vt 0.476953 0.314921
vt 0.363637 0.314921
vt 0.272728 0.157461
vt 1.000000 0.157461
vt 0.454546 0.157461
vt 0.818182 0.157461
vt 0.636364 0.157461
vt 0.476752 0.157461
vt 0.795976 0.157461
vt 0.765316 0.157461
vt 0.636364 0.157461
vt 0.507413 0.157461
vt 0.411055 0.157461
vt 0.861673 0.157461
vt 0.483311 0.157461
vt 0.789418 0.157461
vt 0.636364 0.157461
vt 0.522189 0.157461
vt 0.750540 0.157461
vt 0.742507 0.157461
vt 0.636364 0.157461
vt 0.530222 0.157461
vt 0.476752 0.157461
vt 0.795976 0.157461
vt 0.507413 0.157461
vt 0.765316 0.157461
vt 0.636364 0.157461
vt 0.542351 0.157461
vt 0.730378 0.157461
vt 0.730034 0.157461
vt 0.636364 0.157461
vt 0.542695 0.157461
vt 0.522189 0.157461
vt 0.750540 0.157461
vt 0.530222 0.157461
vt 0.742507 0.157461
vt 0.636364 0.157461
vt 0.542351 0.157461
vt 0.730378 0.157461
vt 0.730034 0.157461
vt 0.636364 0.157461
vt 0.542695 0.157461
s 0
f 54/2/31 55/3/31 76/24/31 74/22/31
f 67/15/32 66/14/32 59/7/32 60/8/32
f 64/12/33 63/11/33 62/10/33 58/6/33
f 59/7/34 58/6/34 62/10/34 61/9/34 60/8/34
f 66/14/35 64/12/35 58/6/35 59/7/35
f 54/2/36 53/1/36 63/11/36 64/12/36
f 53/1/36 57/5/36 65/13/36 63/11/36
f 55/3/36 54/2/36 64/12/36 66/14/36
f 56/4/36 55/3/36 66/14/36 67/15/36
f 57/5/36 56/4/36 67/15/36 65/13/36
f 71/19/37 72/20/37 85/33/37 87/35/37
f 53/1/38 54/2/38 74/22/38 73/21/38
f 55/3/39 56/4/39 77/25/39 76/24/39
f 57/5/40 53/1/40 73/21/40 75/23/40
f 56/4/41 57/5/41 75/23/41 77/25/41
f 69/17/42 68/16/42 73/21/42 74/22/42
f 68/16/42 72/20/42 75/23/42 73/21/42
f 70/18/42 69/17/42 74/22/42 76/24/42
f 71/19/42 70/18/42 76/24/42 77/25/42
f 72/20/42 71/19/42 77/25/42 75/23/42
f 80/28/43 81/29/43 97/45/43 96/44/43
f 69/17/44 70/18/44 86/34/44 84/32/44
f 68/16/45 69/17/45 84/32/45 83/31/45
f 70/18/46 71/19/46 87/35/46 86/34/46
f 72/20/47 68/16/47 83/31/47 85/33/47
f 79/27/48 78/26/48 83/31/48 84/32/48
f 78/26/49 82/30/49 85/33/49 83/31/49
f 80/28/48 79/27/48 84/32/48 86/34/48
f 81/29/50 80/28/50 86/34/50 87/35/50
f 82/30/51 81/29/51 87/35/51 85/33/51
f 92/40/52 88/36/52 98/46/52 102/50/52
f 82/30/53 78/26/53 93/41/53 95/43/53
f 81/29/54 82/30/54 95/43/54 97/45/54
f 79/27/55 80/28/55 96/44/55 94/42/55
f 78/26/56 79/27/56 94/42/56 93/41/56
f 89/37/57 88/36/57 93/41/57 94/42/57
f 88/36/58 92/40/58 95/43/58 93/41/58
f 90/38/57 89/37/57 94/42/57 96/44/57
f 91/39/59 90/38/59 96/44/59 97/45/59
f 92/40/57 91/39/57 97/45/57 95/43/57
f 99/47/57 100/48/57 101/49/57 102/50/57 98/46/57
f 91/39/60 92/40/60 102/50/60 101/49/60
f 89/37/61 90/38/61 100/48/61 99/47/61
f 88/36/62 89/37/62 99/47/62 98/46/62
f 90/38/63 91/39/63 101/49/63 100/48/63
f 65/13/64 67/15/64 60/8/64 61/9/64
f 63/11/65 65/13/65 61/9/65 62/10/65
