# Blender 3.4.1
# www.blender.org
mtllib Stone2.mtl
g Cube_Cube
v 1.171642 0.564322 -1.249500
v 0.639702 -0.385160 -0.428474
v 1.032657 0.892270 0.009373
v 0.385419 -0.137195 0.308413
v -0.332092 0.645695 -1.289985
v -1.032777 -0.401516 -0.491695
v -0.584716 0.929065 0.288024
v -1.038532 -0.121661 0.415657
v -1.099295 -0.314750 -0.186513
v -1.184107 -0.321378 0.066670
v -1.214942 -0.289981 0.344717
v 0.240959 -0.414595 -0.403516
v -0.285003 -0.264081 -0.333656
v -0.743566 -0.479916 -0.466799
v 1.285771 0.404392 -1.241963
v 1.197399 0.092223 -1.012661
v 0.906750 -0.155153 -0.672711
v -1.021755 0.068181 0.470245
v -1.042717 0.421918 0.632406
v -0.839889 0.770877 0.505735
v 0.984034 0.653010 0.142733
v 0.755452 0.346126 0.148916
v 0.542445 0.079947 0.209362
v -0.604864 0.439597 -1.264844
v -0.940177 0.084645 -1.159715
v -0.991738 -0.182674 -0.737349
v 0.647816 0.933382 0.104410
v 0.197224 1.019294 0.266681
v -0.260847 0.992381 0.315776
v 1.305620 0.623619 -1.162657
v 1.415848 0.807822 -0.840413
v 1.266323 0.901493 -0.362325
v -0.846231 -0.221794 0.557387
v -0.431352 -0.231631 0.508248
v 0.056202 -0.231369 0.489782
v -0.558699 0.856594 -0.053558
v -0.569582 0.917952 -0.543981
v -0.376606 0.661847 -0.941490
v 0.062650 0.702469 -1.516397
v 0.592791 0.681234 -1.577268
v 1.012125 0.626901 -1.473396
v 0.513067 -0.249500 0.218767
v 0.638520 -0.372682 0.050795
v 0.678772 -0.429894 -0.202858
v 1.035068 0.726381 -1.272000
v 0.611572 0.832108 -1.298015
v 0.057903 0.938653 -1.224187
v 1.032063 0.963910 -0.891443
v 0.525193 0.971478 -0.822593
v -0.052197 1.180325 -0.731932
v 0.858923 1.012405 -0.359105
v 0.389015 1.162591 -0.240507
v -0.119264 0.982815 -0.160041
v 0.173957 0.069730 0.520086
v 0.334991 0.401071 0.484706
v 0.523887 0.736019 0.433388
v -0.333998 0.095776 0.562971
v -0.156563 0.437114 0.729372
v 0.024658 0.804068 0.630224
v -0.753756 0.101683 0.593620
v -0.639465 0.431780 0.706884
v -0.467805 0.844701 0.719113
v -1.283906 -0.025059 0.315531
v -1.139235 0.286549 0.235142
v -1.062027 0.772416 0.128717
v -1.321090 -0.114377 -0.037946
v -1.252887 0.239292 -0.190299
v -1.063426 0.683203 -0.382411
v -1.267228 -0.165945 -0.434474
v -1.153928 0.172296 -0.664484
v -0.854525 0.507740 -0.837843
v -0.892420 -0.573055 -0.112280
v -0.421138 -0.597127 -0.063906
v 0.134270 -0.566574 -0.087965
v -0.950243 -0.499908 0.149401
v -0.491416 -0.535134 0.177393
v 0.097655 -0.602641 0.191927
v -0.923434 -0.400079 0.347367
v -0.490070 -0.446692 0.361010
v 0.042053 -0.438359 0.363672
v 1.080587 -0.126679 -0.448523
v 1.232747 0.256950 -0.732920
v 1.478482 0.434150 -1.002978
v 1.091963 -0.108720 -0.164303
v 1.202032 0.262194 -0.503552
v 1.414672 0.496352 -0.693637
v 0.808257 0.035971 -0.022515
v 1.191910 0.275264 -0.080184
v 1.286844 0.572752 -0.283660
v -0.573684 -0.219410 -0.861692
v -0.380218 0.049401 -1.305318
v -0.094894 0.423548 -1.440475
v -0.043070 -0.297388 -0.898102
v 0.215562 0.012871 -1.353532
v 0.447154 0.371256 -1.675907
v 0.503906 -0.247409 -0.821268
v 0.784646 0.030973 -1.237013
v 0.963050 0.372424 -1.510533
vn 0.0933 0.9148 -0.3930
vn 0.2108 0.9234 -0.3208
vn 0.1240 0.9766 -0.1756
vn 0.0284 0.9995 0.0105
vn 0.6474 0.4614 -0.6066
vn 0.2338 0.8539 -0.4650
vn 0.0278 0.8273 -0.5610
vn -0.5253 0.7772 -0.3465
vn -0.6009 0.5927 -0.5363
vn -0.3120 0.9267 0.2093
vn -0.2527 0.9562 -0.1478
vn -0.2004 0.9776 0.0650
vn 0.3294 0.8814 0.3386
vn 0.2095 0.9545 0.2124
vn 0.3213 0.9465 -0.0306
vn 0.4215 0.7477 -0.5130
vn 0.2460 -0.3031 0.9206
vn 0.4054 -0.0178 0.9140
vn 0.0081 -0.3875 0.9218
vn 0.0706 0.0789 0.9944
vn 0.5844 -0.2057 0.7849
vn 0.6038 -0.2570 0.7546
vn 0.5291 -0.2722 0.8037
vn 0.4066 0.5836 0.7029
vn 0.3404 0.7365 0.5845
vn 0.0793 0.8853 0.4582
vn -0.2713 0.9280 0.2552
vn -0.3601 0.3092 0.8802
vn -0.2468 -0.3329 0.9101
vn -0.5035 -0.0455 0.8628
vn 0.0908 -0.1638 0.9823
vn 0.0568 -0.1529 0.9866
vn -0.9324 0.3406 0.1208
vn -0.9521 0.2967 0.0737
vn -0.9703 0.1492 -0.1906
vn -0.8540 0.3591 -0.3765
vn -0.4087 -0.0976 0.9074
vn -0.8523 0.0953 0.5144
vn -0.8776 0.3770 0.2960
vn -0.3089 0.9510 -0.0096
vn -0.3116 0.9499 -0.0226
vn -0.4349 0.7042 -0.5612
vn -0.4537 0.8510 -0.2646
vn -0.7393 0.4961 -0.4553
vn -0.8336 -0.2836 -0.4739
vn -0.7124 -0.6381 -0.2921
vn -0.7035 -0.7034 -0.1015
vn -0.9217 -0.3791 0.0817
vn -0.0813 -0.9675 0.2392
vn -0.0319 -0.9986 0.0431
vn -0.1024 -0.8891 0.4462
vn -0.0519 -0.8176 0.5735
vn -0.5275 -0.8302 -0.1802
vn 0.2645 -0.8484 -0.4585
vn -0.1392 -0.7334 -0.6654
vn 0.1168 -0.9380 -0.3264
vn 0.3369 -0.9376 0.0857
vn 0.4320 -0.5618 0.7056
vn 0.4611 -0.3784 0.8026
vn 0.0176 -0.5457 0.8378
vn -0.0135 -0.6697 0.7425
vn -0.4106 -0.3737 0.8317
vn -0.4970 -0.8376 0.2267
vn -0.6833 -0.7238 -0.0958
vn 0.9553 -0.2914 0.0491
vn 0.7614 -0.6131 0.2104
vn 0.8014 -0.3194 0.5058
vn 0.9043 -0.3820 0.1907
vn 0.4800 -0.8386 -0.2575
vn 0.7758 -0.6257 -0.0821
vn 0.7699 -0.6300 -0.1023
vn 0.6639 0.2005 -0.7204
vn 0.9597 0.2307 -0.1605
vn 0.9536 0.1252 0.2738
vn 0.8257 0.1610 0.5407
vn 0.6509 -0.0868 0.7541
vn 0.4685 -0.3650 0.8046
vn 0.6244 -0.0334 0.7804
vn 0.5644 -0.0872 0.8209
vn 0.5992 -0.7879 0.1423
vn -0.1254 -0.8042 -0.5810
vn -0.2516 -0.3788 -0.8906
vn 0.1380 -0.8582 -0.4944
vn 0.1915 -0.6989 -0.6891
vn -0.2103 -0.7483 -0.6292
vn -0.2129 -0.8027 -0.5572
vn -0.2899 -0.0679 -0.9547
vn -0.4064 0.1737 -0.8970
vn -0.2520 0.1665 -0.9533
vn 0.2812 0.1317 -0.9506
vn 0.7102 0.1604 -0.6855
vn 0.4783 -0.6497 -0.5908
vn 0.3286 -0.8735 -0.3592
vn 0.1962 -0.9022 -0.3842
vn -0.0906 -0.9795 -0.1801
vn 0.1520 -0.9744 -0.1655
vt 0.625000 0.500000
vt 0.375000 0.500000
vt 0.625000 0.750000
vt 0.375000 0.750000
vt 0.875000 0.500000
vt 0.625000 0.250000
vt 0.125000 0.500000
vt 0.375000 0.250000
vt 0.875000 0.750000
vt 0.625000 1.000000
vt 0.625000 0.000000
vt 0.375000 1.000000
vt 0.375000 0.000000
vt 0.125000 0.750000
vt 0.375000 0.187500
vt 0.125000 0.562500
vt 0.375000 0.125000
vt 0.125000 0.625000
vt 0.375000 0.062500
vt 0.125000 0.687500
vt 0.312500 0.500000
vt 0.375000 0.437500
vt 0.250000 0.500000
vt 0.375000 0.375000
vt 0.187500 0.500000
vt 0.375000 0.312500
vt 0.562500 0.500000
vt 0.500000 0.500000
vt 0.437500 0.500000
vt 0.437500 1.000000
vt 0.437500 0.000000
vt 0.500000 1.000000
vt 0.500000 0.000000
vt 0.562500 1.000000
vt 0.562500 0.000000
vt 0.562500 0.750000
vt 0.500000 0.750000
vt 0.437500 0.750000
vt 0.562500 0.250000
vt 0.500000 0.250000
vt 0.437500 0.250000
vt 0.687500 0.750000
vt 0.625000 0.812500
vt 0.750000 0.750000
vt 0.625000 0.875000
vt 0.812500 0.750000
vt 0.625000 0.937500
vt 0.625000 0.562500
vt 0.625000 0.625000
vt 0.625000 0.687500
vt 0.375000 0.937500
vt 0.187500 0.750000
vt 0.375000 0.875000
vt 0.250000 0.750000
vt 0.375000 0.812500
vt 0.312500 0.750000
vt 0.875000 0.687500
vt 0.625000 0.062500
vt 0.875000 0.625000
vt 0.625000 0.125000
vt 0.875000 0.562500
vt 0.625000 0.187500
vt 0.812500 0.500000
vt 0.625000 0.312500
vt 0.750000 0.500000
vt 0.625000 0.375000
vt 0.687500 0.500000
vt 0.625000 0.437500
vt 0.375000 0.687500
vt 0.375000 0.625000
vt 0.375000 0.562500
vt 0.687500 0.562500
vt 0.750000 0.562500
vt 0.812500 0.562500
vt 0.687500 0.625000
vt 0.750000 0.625000
vt 0.812500 0.625000
vt 0.687500 0.687500
vt 0.750000 0.687500
vt 0.812500 0.687500
vt 0.437500 0.812500
vt 0.500000 0.812500
vt 0.562500 0.812500
vt 0.437500 0.875000
vt 0.500000 0.875000
vt 0.562500 0.875000
vt 0.437500 0.937500
vt 0.500000 0.937500
vt 0.562500 0.937500
vt 0.437500 0.062500
vt 0.500000 0.062500
vt 0.562500 0.062500
vt 0.437500 0.125000
vt 0.500000 0.125000
vt 0.562500 0.125000
vt 0.437500 0.187500
vt 0.500000 0.187500
vt 0.562500 0.187500
vt 0.187500 0.562500
vt 0.250000 0.562500
vt 0.312500 0.562500
vt 0.187500 0.625000
vt 0.250000 0.625000
vt 0.312500 0.625000
vt 0.187500 0.687500
vt 0.250000 0.687500
vt 0.312500 0.687500
vt 0.437500 0.562500
vt 0.500000 0.562500
vt 0.562500 0.562500
vt 0.437500 0.625000
vt 0.500000 0.625000
vt 0.562500 0.625000
vt 0.437500 0.687500
vt 0.500000 0.687500
vt 0.562500 0.687500
vt 0.437500 0.312500
vt 0.500000 0.312500
vt 0.562500 0.312500
vt 0.437500 0.375000
vt 0.500000 0.375000
vt 0.562500 0.375000
vt 0.437500 0.437500
vt 0.500000 0.437500
vt 0.562500 0.437500
s 0
g Cube_Material
usemtl Material
f 45/72/1 46/73/1 49/76/1 48/75/1
f 46/73/2 47/74/2 50/77/2 49/76/2
f 48/75/3 49/76/3 52/79/3 51/78/3
f 49/76/4 50/77/4 53/80/4 52/79/4
f 1/1/5 41/67/5 45/72/5 30/48/5
f 41/67/6 40/65/6 46/73/6 45/72/6
f 40/65/7 39/63/7 47/74/7 46/73/7
f 39/63/8 5/5/8 38/61/8 47/74/8
f 47/74/9 38/61/9 37/59/9 50/77/9
f 50/77/10 37/59/10 36/57/10 53/80/10
f 53/80/11 36/57/11 7/9/11 29/46/11
f 52/79/12 53/80/12 29/46/12 28/44/12
f 51/78/13 52/79/13 28/44/13 27/42/13
f 32/50/14 51/78/14 27/42/14 3/3/14
f 31/49/15 48/75/15 51/78/15 32/50/15
f 30/48/16 45/72/16 48/75/16 31/49/16
f 54/81/17 55/82/17 58/85/17 57/84/17
f 55/82/18 56/83/18 59/86/18 58/85/18
f 57/84/19 58/85/19 61/88/19 60/87/19
f 58/85/20 59/86/20 62/89/20 61/88/20
f 4/4/21 23/38/21 54/81/21 35/55/21
f 23/38/22 22/37/22 55/82/22 54/81/22
f 22/37/23 21/36/23 56/83/23 55/82/23
f 21/36/24 3/3/24 27/43/24 56/83/24
f 56/83/25 27/43/25 28/45/25 59/86/25
f 59/86/26 28/45/26 29/47/26 62/89/26
f 62/89/27 29/47/27 7/10/27 20/34/27
f 61/88/28 62/89/28 20/34/28 19/32/28
f 60/87/29 61/88/29 19/32/29 18/30/29
f 33/51/30 60/87/30 18/30/30 8/12/30
f 34/53/31 57/84/31 60/87/31 33/51/31
f 35/55/32 54/81/32 57/84/32 34/53/32
f 63/90/33 64/91/33 67/94/33 66/93/33
f 64/91/34 65/92/34 68/95/34 67/94/34
f 66/93/35 67/94/35 70/97/35 69/96/35
f 67/94/36 68/95/36 71/98/36 70/97/36
f 8/13/37 18/31/37 63/90/37 11/19/37
f 18/31/38 19/33/38 64/91/38 63/90/38
f 19/33/39 20/35/39 65/92/39 64/91/39
f 20/35/40 7/11/40 36/58/40 65/92/40
f 65/92/41 36/58/41 37/60/41 68/95/41
f 68/95/42 37/60/42 38/62/42 71/98/42
f 71/98/43 38/62/43 5/6/43 24/39/43
f 70/97/44 71/98/44 24/39/44 25/40/44
f 69/96/45 70/97/45 25/40/45 26/41/45
f 9/15/46 69/96/46 26/41/46 6/8/46
f 10/17/47 66/93/47 69/96/47 9/15/47
f 11/19/48 63/90/48 66/93/48 10/17/48
f 72/99/49 73/100/49 76/103/49 75/102/49
f 73/100/50 74/101/50 77/104/50 76/103/50
f 75/102/51 76/103/51 79/106/51 78/105/51
f 76/103/52 77/104/52 80/107/52 79/106/52
f 6/7/53 14/25/53 72/99/53 9/16/53
f 14/25/54 13/23/54 73/100/54 72/99/54
f 13/23/55 12/21/55 74/101/55 73/100/55
f 12/21/56 2/2/56 44/71/56 74/101/56
f 74/101/57 44/71/57 43/70/57 77/104/57
f 77/104/58 43/70/58 42/69/58 80/107/58
f 80/107/59 42/69/59 4/4/59 35/56/59
f 79/106/60 80/107/60 35/56/60 34/54/60
f 78/105/61 79/106/61 34/54/61 33/52/61
f 11/20/62 78/105/62 33/52/62 8/14/62
f 10/18/63 75/102/63 78/105/63 11/20/63
f 9/16/64 72/99/64 75/102/64 10/18/64
f 81/108/65 82/109/65 85/112/65 84/111/65
f 82/109/66 83/110/66 86/113/66 85/112/66
f 84/111/67 85/112/67 88/115/67 87/114/67
f 85/112/68 86/113/68 89/116/68 88/115/68
f 2/2/69 17/29/69 81/108/69 44/71/69
f 17/29/70 16/28/70 82/109/70 81/108/70
f 16/28/71 15/27/71 83/110/71 82/109/71
f 15/27/72 1/1/72 30/48/72 83/110/72
f 83/110/73 30/48/73 31/49/73 86/113/73
f 86/113/74 31/49/74 32/50/74 89/116/74
f 89/116/75 32/50/75 3/3/75 21/36/75
f 88/115/76 89/116/76 21/36/76 22/37/76
f 87/114/77 88/115/77 22/37/77 23/38/77
f 42/69/78 87/114/78 23/38/78 4/4/78
f 43/70/79 84/111/79 87/114/79 42/69/79
f 44/71/80 81/108/80 84/111/80 43/70/80
f 90/117/81 91/118/81 94/121/81 93/120/81
f 91/118/82 92/119/82 95/122/82 94/121/82
f 93/120/83 94/121/83 97/124/83 96/123/83
f 94/121/84 95/122/84 98/125/84 97/124/84
f 6/8/85 26/41/85 90/117/85 14/26/85
f 26/41/86 25/40/86 91/118/86 90/117/86
f 25/40/87 24/39/87 92/119/87 91/118/87
f 24/39/88 5/6/88 39/64/88 92/119/88
f 92/119/89 39/64/89 40/66/89 95/122/89
f 95/122/90 40/66/90 41/68/90 98/125/90
f 98/125/91 41/68/91 1/1/91 15/27/91
f 97/124/92 98/125/92 15/27/92 16/28/92
f 96/123/93 97/124/93 16/28/93 17/29/93
f 12/22/94 96/123/94 17/29/94 2/2/94
f 13/24/95 93/120/95 96/123/95 12/22/95
f 14/26/96 90/117/96 93/120/96 13/24/96
